<svg
  xmlns="http://www.w3.org/2000/svg"
  width="32"
  height="32"
  viewBox="0 0 32 32"
  fill="currentColor"
  aria-hidden="true"
  focusable="false"
  role="img"
  class="pf-v5-c-icon pf-m-secondary"
  data-icon="whatsapp"
  data-icon-version="v4.1.0"
  data-icon-name="whatsapp"
  data-icon-description="WhatsApp icon"
  data-icon-category="social"
  data-icon-color="#25D366"
>
  <path d="M16.004 3c-7.15 0-12.996 5.846-12.996 13 0 2.3.62 4.547 1.798 6.51L3 29l6.633-1.748A12.894 12.894 0 0 0 16.004 29c7.152 0 13-5.846 13-13s-5.848-13-13-13zm0 23.8a10.775 10.775 0 0 1-5.533-1.521l-.4-.237-3.933 1.032 1.06-3.83-.261-.394a10.799 10.799 0 0 1-1.684-5.796c0-5.988 4.875-10.863 10.87-10.863 5.99 0 10.865 4.875 10.865 10.863 0 5.993-4.875 10.866-10.865 10.866zm6.003-8.214c-.33-.165-1.942-.957-2.242-1.065-.297-.111-.514-.165-.73.167-.216.33-.836 1.065-1.026 1.281-.194.216-.378.243-.708.082-.33-.165-1.39-.512-2.644-1.63-.976-.868-1.634-1.938-1.827-2.268-.194-.33-.021-.508.144-.673.147-.147.33-.378.49-.565.165-.194.22-.33.33-.548.11-.216.055-.41-.027-.574-.082-.165-.73-1.758-1.002-2.409-.264-.633-.533-.547-.73-.557h-.622c-.192 0-.5.07-.764.33-.26.26-1.01.99-1.01 2.41s1.032 2.796 1.177 2.99c.147.194 2.033 3.093 4.926 4.333.69.297 1.228.474 1.647.605.692.22 1.323.189 1.822.115.556-.083 1.942-.792 2.217-1.557.273-.766.273-1.423.192-1.558-.082-.137-.3-.219-.63-.383z"/>
</svg>
